# xmcd CD database file
#
# Track frame offsets:
#	187
#	22022
#	43245
#	64655
#	86467
#	107797
#
# Disc length: 1719 seconds
#
# Revision: 2
# Processed by: cddbd v1.5.1PL0 Copyright (c) Steve Scherf et al.
# Submitted via: CDex 1.51
#
DISCID=4a06b506
DTITLE=Fukuyama Masaharu - Heart/you
DYEAR=1900
DGENRE=
TTITLE0=Heart
TTITLE1=Like A Hurricane
TTITLE2=you
TTITLE3=Heart(Original Karaoke)
TTITLE4=Like A Hurricane(Original Karaoke)
TTITLE5=you(Original Karaoke)
EXTD=
EXTT0=
EXTT1=
EXTT2=
EXTT3=
EXTT4=
EXTT5=
PLAYORDER=
